<mxfile host="Electron" modified="2025-03-22T11:23:52.453Z" agent="Mozilla/5.0 (Windows NT 10.0; Win64; x64) AppleWebKit/537.36 (KHTML, like Gecko) draw.io/22.1.2 Chrome/114.0.5735.289 Electron/25.9.4 Safari/537.36" etag="kyDUV18_4XxmUKeUifDj" version="22.1.2" type="device">
  <diagram name="Sayfa -1" id="k9GLqp16EoPKNBVqOIJ4">
    <mxGraphModel dx="2057" dy="1188" grid="1" gridSize="10" guides="1" tooltips="1" connect="1" arrows="1" fold="1" page="1" pageScale="1" pageWidth="900" pageHeight="1600" math="0" shadow="0">
      <root>
        <mxCell id="0" />
        <mxCell id="1" parent="0" />
        <mxCell id="dF-KfLfHC0gEnAlKijJg-1" value="Child" style="shape=umlActor;verticalLabelPosition=bottom;verticalAlign=top;html=1;outlineConnect=0;" parent="1" vertex="1">
          <mxGeometry y="1230" width="50" height="100" as="geometry" />
        </mxCell>
        <mxCell id="dF-KfLfHC0gEnAlKijJg-3" value="KidTask" style="shape=folder;fontStyle=1;tabWidth=110;tabHeight=30;tabPosition=left;html=1;boundedLbl=1;labelInHeader=1;container=0;collapsible=0;whiteSpace=wrap;" parent="1" vertex="1">
          <mxGeometry x="90" y="50" width="720" height="1430" as="geometry" />
        </mxCell>
        <mxCell id="dF-KfLfHC0gEnAlKijJg-57" style="rounded=0;orthogonalLoop=1;jettySize=auto;html=1;exitX=0.5;exitY=0.5;exitDx=0;exitDy=0;exitPerimeter=0;entryX=1;entryY=0.5;entryDx=0;entryDy=0;" parent="1" source="dF-KfLfHC0gEnAlKijJg-8" target="dF-KfLfHC0gEnAlKijJg-56" edge="1">
          <mxGeometry relative="1" as="geometry" />
        </mxCell>
        <mxCell id="dF-KfLfHC0gEnAlKijJg-8" value="Parent" style="shape=umlActor;verticalLabelPosition=bottom;verticalAlign=top;html=1;outlineConnect=0;" parent="1" vertex="1">
          <mxGeometry x="852" y="380" width="48" height="100" as="geometry" />
        </mxCell>
        <mxCell id="dF-KfLfHC0gEnAlKijJg-31" style="rounded=0;orthogonalLoop=1;jettySize=auto;html=1;entryX=0;entryY=0.5;entryDx=0;entryDy=0;exitX=0.5;exitY=0.5;exitDx=0;exitDy=0;exitPerimeter=0;" parent="1" source="dF-KfLfHC0gEnAlKijJg-9" target="dF-KfLfHC0gEnAlKijJg-29" edge="1">
          <mxGeometry relative="1" as="geometry" />
        </mxCell>
        <mxCell id="dF-KfLfHC0gEnAlKijJg-55" style="rounded=0;orthogonalLoop=1;jettySize=auto;html=1;exitX=0.5;exitY=0.5;exitDx=0;exitDy=0;exitPerimeter=0;entryX=0;entryY=0.5;entryDx=0;entryDy=0;" parent="1" source="dF-KfLfHC0gEnAlKijJg-9" target="dF-KfLfHC0gEnAlKijJg-48" edge="1">
          <mxGeometry relative="1" as="geometry" />
        </mxCell>
        <mxCell id="H7bOBjfWnn8zgHa3zS45-6" style="rounded=0;orthogonalLoop=1;jettySize=auto;html=1;exitX=0.5;exitY=0.5;exitDx=0;exitDy=0;exitPerimeter=0;entryX=0;entryY=0.5;entryDx=0;entryDy=0;" edge="1" parent="1" source="dF-KfLfHC0gEnAlKijJg-9" target="H7bOBjfWnn8zgHa3zS45-4">
          <mxGeometry relative="1" as="geometry" />
        </mxCell>
        <mxCell id="dF-KfLfHC0gEnAlKijJg-9" value="Teacher" style="shape=umlActor;verticalLabelPosition=bottom;verticalAlign=top;html=1;outlineConnect=0;" parent="1" vertex="1">
          <mxGeometry y="380" width="50" height="100" as="geometry" />
        </mxCell>
        <mxCell id="dF-KfLfHC0gEnAlKijJg-21" style="rounded=0;orthogonalLoop=1;jettySize=auto;html=1;exitX=0.5;exitY=0.5;exitDx=0;exitDy=0;exitPerimeter=0;" parent="1" source="dF-KfLfHC0gEnAlKijJg-1" target="dF-KfLfHC0gEnAlKijJg-20" edge="1">
          <mxGeometry relative="1" as="geometry" />
        </mxCell>
        <mxCell id="dF-KfLfHC0gEnAlKijJg-28" style="rounded=0;orthogonalLoop=1;jettySize=auto;html=1;exitX=0.5;exitY=0.5;exitDx=0;exitDy=0;exitPerimeter=0;" parent="1" source="dF-KfLfHC0gEnAlKijJg-1" target="dF-KfLfHC0gEnAlKijJg-27" edge="1">
          <mxGeometry relative="1" as="geometry" />
        </mxCell>
        <mxCell id="dF-KfLfHC0gEnAlKijJg-30" style="rounded=0;orthogonalLoop=1;jettySize=auto;html=1;exitX=0.5;exitY=0.5;exitDx=0;exitDy=0;exitPerimeter=0;entryX=1;entryY=0.5;entryDx=0;entryDy=0;" parent="1" source="dF-KfLfHC0gEnAlKijJg-8" target="dF-KfLfHC0gEnAlKijJg-29" edge="1">
          <mxGeometry relative="1" as="geometry" />
        </mxCell>
        <mxCell id="dF-KfLfHC0gEnAlKijJg-37" style="rounded=0;orthogonalLoop=1;jettySize=auto;html=1;exitX=0.5;exitY=0.5;exitDx=0;exitDy=0;exitPerimeter=0;entryX=0;entryY=0.5;entryDx=0;entryDy=0;" parent="1" source="dF-KfLfHC0gEnAlKijJg-1" target="dF-KfLfHC0gEnAlKijJg-43" edge="1">
          <mxGeometry relative="1" as="geometry" />
        </mxCell>
        <mxCell id="dF-KfLfHC0gEnAlKijJg-54" style="rounded=0;orthogonalLoop=1;jettySize=auto;html=1;exitX=0.5;exitY=0.5;exitDx=0;exitDy=0;exitPerimeter=0;entryX=1;entryY=0.5;entryDx=0;entryDy=0;" parent="1" source="dF-KfLfHC0gEnAlKijJg-8" target="dF-KfLfHC0gEnAlKijJg-48" edge="1">
          <mxGeometry relative="1" as="geometry" />
        </mxCell>
        <mxCell id="dF-KfLfHC0gEnAlKijJg-4" value="" style="html=1;strokeColor=none;resizeWidth=1;resizeHeight=1;fillColor=none;part=1;connectable=0;allowArrows=0;deletable=0;whiteSpace=wrap;" parent="1" vertex="1">
          <mxGeometry x="90" y="50" width="720" height="1430" as="geometry">
            <mxPoint y="-970" as="offset" />
          </mxGeometry>
        </mxCell>
        <mxCell id="dF-KfLfHC0gEnAlKijJg-59" style="rounded=0;orthogonalLoop=1;jettySize=auto;html=1;exitX=0.5;exitY=0.5;exitDx=0;exitDy=0;exitPerimeter=0;entryX=1;entryY=0.5;entryDx=0;entryDy=0;" parent="1" source="dF-KfLfHC0gEnAlKijJg-8" target="dF-KfLfHC0gEnAlKijJg-58" edge="1">
          <mxGeometry relative="1" as="geometry" />
        </mxCell>
        <mxCell id="dF-KfLfHC0gEnAlKijJg-10" value="Add a deadline task." style="ellipse;whiteSpace=wrap;html=1;" parent="1" vertex="1">
          <mxGeometry x="490" y="860.0034319526628" width="100" height="73.55" as="geometry" />
        </mxCell>
        <mxCell id="dF-KfLfHC0gEnAlKijJg-11" value="Add a time range task." style="ellipse;whiteSpace=wrap;html=1;" parent="1" vertex="1">
          <mxGeometry x="340" y="860" width="100" height="73.55" as="geometry" />
        </mxCell>
        <mxCell id="dF-KfLfHC0gEnAlKijJg-23" style="rounded=0;orthogonalLoop=1;jettySize=auto;html=1;entryX=1.001;entryY=0.543;entryDx=0;entryDy=0;fontFamily=Helvetica;exitX=0;exitY=0.5;exitDx=0;exitDy=0;entryPerimeter=0;dashed=1;" parent="1" source="dF-KfLfHC0gEnAlKijJg-22" target="dF-KfLfHC0gEnAlKijJg-20" edge="1">
          <mxGeometry relative="1" as="geometry" />
        </mxCell>
        <mxCell id="dF-KfLfHC0gEnAlKijJg-42" value="&amp;lt;&amp;lt;extend&amp;gt;&amp;gt;" style="edgeLabel;html=1;align=center;verticalAlign=middle;resizable=0;points=[];" parent="dF-KfLfHC0gEnAlKijJg-23" vertex="1" connectable="0">
          <mxGeometry x="-0.106" y="1" relative="1" as="geometry">
            <mxPoint x="1" as="offset" />
          </mxGeometry>
        </mxCell>
        <mxCell id="dF-KfLfHC0gEnAlKijJg-20" value="View/List tasks." style="ellipse;whiteSpace=wrap;html=1;" parent="1" vertex="1">
          <mxGeometry x="210" y="1099.9961538461537" width="140" height="103.55029585798816" as="geometry" />
        </mxCell>
        <mxCell id="dF-KfLfHC0gEnAlKijJg-22" value="Filter by weekly base." style="ellipse;whiteSpace=wrap;html=1;" parent="1" vertex="1">
          <mxGeometry x="510" y="1169.999349112426" width="140" height="103.55029585798816" as="geometry" />
        </mxCell>
        <mxCell id="dF-KfLfHC0gEnAlKijJg-25" value="Filter by monthly base." style="ellipse;whiteSpace=wrap;html=1;" parent="1" vertex="1">
          <mxGeometry x="510" y="1029.9987573964497" width="140" height="103.55029585798816" as="geometry" />
        </mxCell>
        <mxCell id="dF-KfLfHC0gEnAlKijJg-26" style="orthogonalLoop=1;jettySize=auto;html=1;fontFamily=Helvetica;exitX=0;exitY=0.5;exitDx=0;exitDy=0;entryX=1;entryY=0.5;entryDx=0;entryDy=0;strokeColor=default;rounded=0;dashed=1;" parent="1" source="dF-KfLfHC0gEnAlKijJg-25" target="dF-KfLfHC0gEnAlKijJg-20" edge="1">
          <mxGeometry relative="1" as="geometry">
            <mxPoint x="635" y="1078" as="sourcePoint" />
            <mxPoint x="-279" y="367.21917159763314" as="targetPoint" />
          </mxGeometry>
        </mxCell>
        <mxCell id="dF-KfLfHC0gEnAlKijJg-40" value="&amp;lt;&amp;lt;extend&amp;gt;&amp;gt;" style="edgeLabel;html=1;align=center;verticalAlign=middle;resizable=0;points=[];" parent="dF-KfLfHC0gEnAlKijJg-26" vertex="1" connectable="0">
          <mxGeometry x="-0.0887" y="-2" relative="1" as="geometry">
            <mxPoint as="offset" />
          </mxGeometry>
        </mxCell>
        <mxCell id="dF-KfLfHC0gEnAlKijJg-27" value="Mark a task as completed." style="ellipse;whiteSpace=wrap;html=1;" parent="1" vertex="1">
          <mxGeometry x="210" y="969.9980473372782" width="140" height="103.55029585798816" as="geometry" />
        </mxCell>
        <mxCell id="dF-KfLfHC0gEnAlKijJg-33" style="rounded=0;orthogonalLoop=1;jettySize=auto;html=1;entryX=0.5;entryY=0;entryDx=0;entryDy=0;" parent="1" source="dF-KfLfHC0gEnAlKijJg-29" target="dF-KfLfHC0gEnAlKijJg-32" edge="1">
          <mxGeometry relative="1" as="geometry" />
        </mxCell>
        <mxCell id="dF-KfLfHC0gEnAlKijJg-34" value="&amp;lt;&amp;lt;include&amp;gt;&amp;gt;" style="edgeLabel;html=1;align=center;verticalAlign=middle;resizable=0;points=[];" parent="dF-KfLfHC0gEnAlKijJg-33" vertex="1" connectable="0">
          <mxGeometry x="-0.0225" y="-1" relative="1" as="geometry">
            <mxPoint x="-1" y="50" as="offset" />
          </mxGeometry>
        </mxCell>
        <mxCell id="dF-KfLfHC0gEnAlKijJg-29" value="Approve a task.&lt;br&gt;" style="ellipse;whiteSpace=wrap;html=1;" parent="1" vertex="1">
          <mxGeometry x="390" y="549.9999408284024" width="140" height="103.55029585798816" as="geometry" />
        </mxCell>
        <mxCell id="dF-KfLfHC0gEnAlKijJg-32" value="Give a rating to the task." style="ellipse;whiteSpace=wrap;html=1;" parent="1" vertex="1">
          <mxGeometry x="390" y="379.99923076923085" width="140" height="103.55029585798816" as="geometry" />
        </mxCell>
        <mxCell id="dF-KfLfHC0gEnAlKijJg-35" value="Add a wish for a product." style="ellipse;whiteSpace=wrap;html=1;" parent="1" vertex="1">
          <mxGeometry x="300" y="1376.451420118343" width="140" height="103.55029585798816" as="geometry" />
        </mxCell>
        <mxCell id="dF-KfLfHC0gEnAlKijJg-36" value="Add a wish for activity." style="ellipse;whiteSpace=wrap;html=1;" parent="1" vertex="1">
          <mxGeometry x="130" y="1376.4517159763316" width="140" height="103.55029585798816" as="geometry" />
        </mxCell>
        <mxCell id="dF-KfLfHC0gEnAlKijJg-44" value="" style="rounded=0;orthogonalLoop=1;jettySize=auto;html=1;exitX=0.5;exitY=1;exitDx=0;exitDy=0;entryX=0.5;entryY=0;entryDx=0;entryDy=0;dashed=1;" parent="1" source="dF-KfLfHC0gEnAlKijJg-43" target="dF-KfLfHC0gEnAlKijJg-36" edge="1">
          <mxGeometry relative="1" as="geometry" />
        </mxCell>
        <mxCell id="dF-KfLfHC0gEnAlKijJg-47" value="&amp;lt;&amp;lt;include&amp;gt;&amp;gt;" style="edgeLabel;html=1;align=center;verticalAlign=middle;resizable=0;points=[];" parent="dF-KfLfHC0gEnAlKijJg-44" vertex="1" connectable="0">
          <mxGeometry x="0.0219" relative="1" as="geometry">
            <mxPoint x="-14" y="6" as="offset" />
          </mxGeometry>
        </mxCell>
        <mxCell id="dF-KfLfHC0gEnAlKijJg-45" style="rounded=0;orthogonalLoop=1;jettySize=auto;html=1;entryX=0.5;entryY=0;entryDx=0;entryDy=0;exitX=0.5;exitY=1;exitDx=0;exitDy=0;dashed=1;" parent="1" source="dF-KfLfHC0gEnAlKijJg-43" target="dF-KfLfHC0gEnAlKijJg-35" edge="1">
          <mxGeometry relative="1" as="geometry" />
        </mxCell>
        <mxCell id="dF-KfLfHC0gEnAlKijJg-46" value="&amp;lt;&amp;lt;include&amp;gt;&amp;gt;" style="edgeLabel;html=1;align=center;verticalAlign=middle;resizable=0;points=[];" parent="dF-KfLfHC0gEnAlKijJg-45" vertex="1" connectable="0">
          <mxGeometry x="0.2021" y="-1" relative="1" as="geometry">
            <mxPoint as="offset" />
          </mxGeometry>
        </mxCell>
        <mxCell id="dF-KfLfHC0gEnAlKijJg-43" value="Add a wish." style="ellipse;whiteSpace=wrap;html=1;" parent="1" vertex="1">
          <mxGeometry x="210" y="1226.448224852071" width="140" height="103.55029585798816" as="geometry" />
        </mxCell>
        <mxCell id="dF-KfLfHC0gEnAlKijJg-50" style="rounded=0;orthogonalLoop=1;jettySize=auto;html=1;entryX=0.5;entryY=0;entryDx=0;entryDy=0;exitX=0.5;exitY=1;exitDx=0;exitDy=0;" parent="1" source="dF-KfLfHC0gEnAlKijJg-48" target="dF-KfLfHC0gEnAlKijJg-10" edge="1">
          <mxGeometry relative="1" as="geometry" />
        </mxCell>
        <mxCell id="dF-KfLfHC0gEnAlKijJg-52" value="&amp;lt;&amp;lt;include&amp;gt;&amp;gt;" style="edgeLabel;html=1;align=center;verticalAlign=middle;resizable=0;points=[];" parent="dF-KfLfHC0gEnAlKijJg-50" vertex="1" connectable="0">
          <mxGeometry x="0.0191" relative="1" as="geometry">
            <mxPoint as="offset" />
          </mxGeometry>
        </mxCell>
        <mxCell id="dF-KfLfHC0gEnAlKijJg-48" value="Add a task." style="ellipse;whiteSpace=wrap;html=1;" parent="1" vertex="1">
          <mxGeometry x="410" y="689.9986390532545" width="100" height="73.55" as="geometry" />
        </mxCell>
        <mxCell id="dF-KfLfHC0gEnAlKijJg-49" style="rounded=0;orthogonalLoop=1;jettySize=auto;html=1;entryX=0.5;entryY=0;entryDx=0;entryDy=0;exitX=0.5;exitY=1;exitDx=0;exitDy=0;" parent="1" source="dF-KfLfHC0gEnAlKijJg-48" target="dF-KfLfHC0gEnAlKijJg-11" edge="1">
          <mxGeometry relative="1" as="geometry" />
        </mxCell>
        <mxCell id="dF-KfLfHC0gEnAlKijJg-51" value="&amp;lt;&amp;lt;include&amp;gt;&amp;gt;" style="edgeLabel;html=1;align=center;verticalAlign=middle;resizable=0;points=[];" parent="dF-KfLfHC0gEnAlKijJg-49" vertex="1" connectable="0">
          <mxGeometry x="0.0274" y="-1" relative="1" as="geometry">
            <mxPoint as="offset" />
          </mxGeometry>
        </mxCell>
        <mxCell id="dF-KfLfHC0gEnAlKijJg-63" style="rounded=0;orthogonalLoop=1;jettySize=auto;html=1;entryX=1;entryY=0.5;entryDx=0;entryDy=0;dashed=1;" parent="1" source="dF-KfLfHC0gEnAlKijJg-56" target="dF-KfLfHC0gEnAlKijJg-62" edge="1">
          <mxGeometry relative="1" as="geometry" />
        </mxCell>
        <mxCell id="dF-KfLfHC0gEnAlKijJg-65" value="&amp;lt;&amp;lt;include&amp;gt;&amp;gt;" style="edgeLabel;html=1;align=center;verticalAlign=middle;resizable=0;points=[];" parent="dF-KfLfHC0gEnAlKijJg-63" vertex="1" connectable="0">
          <mxGeometry x="-0.004" relative="1" as="geometry">
            <mxPoint as="offset" />
          </mxGeometry>
        </mxCell>
        <mxCell id="dF-KfLfHC0gEnAlKijJg-56" value="Approve a wish." style="ellipse;whiteSpace=wrap;html=1;" parent="1" vertex="1">
          <mxGeometry x="650" y="109.99875739644972" width="140" height="103.55029585798816" as="geometry" />
        </mxCell>
        <mxCell id="dF-KfLfHC0gEnAlKijJg-58" value="Reject a wish." style="ellipse;whiteSpace=wrap;html=1;" parent="1" vertex="1">
          <mxGeometry x="650" y="240.00195266272186" width="140" height="103.55029585798816" as="geometry" />
        </mxCell>
        <mxCell id="dF-KfLfHC0gEnAlKijJg-62" value="Specify the level of wish." style="ellipse;whiteSpace=wrap;html=1;" parent="1" vertex="1">
          <mxGeometry x="390" y="109.99875739644966" width="140" height="103.55029585798816" as="geometry" />
        </mxCell>
        <mxCell id="H7bOBjfWnn8zgHa3zS45-4" value="Add extra points." style="ellipse;whiteSpace=wrap;html=1;" vertex="1" parent="1">
          <mxGeometry x="390" y="259.99875739644966" width="140" height="103.55029585798816" as="geometry" />
        </mxCell>
        <mxCell id="H7bOBjfWnn8zgHa3zS45-5" style="rounded=0;orthogonalLoop=1;jettySize=auto;html=1;exitX=0.5;exitY=0.5;exitDx=0;exitDy=0;exitPerimeter=0;entryX=1;entryY=0.5;entryDx=0;entryDy=0;" edge="1" parent="1" source="dF-KfLfHC0gEnAlKijJg-8" target="H7bOBjfWnn8zgHa3zS45-4">
          <mxGeometry relative="1" as="geometry" />
        </mxCell>
      </root>
    </mxGraphModel>
  </diagram>
</mxfile>
